<svg id="Layer_1" enable-background="new 0 0 56 60" height="512" viewBox="0 0 56 60" width="512" xmlns="http://www.w3.org/2000/svg"><path fill="#EEE" d="m53.03 43.142v-2.142c0-1.654-1.346-3-3-3h-5.525c-1.331 0-1.475-1.398-1.475-2 0-2.206-1.794-4-4-4h-14v-4h15c2.206 0 4-1.794 4-4 0-1.103.897-2 2-2h4c1.654 0 3-1.346 3-3v-2.142c1.72-.447 3-1.999 3-3.858 0-2.206-1.794-4-4-4s-4 1.794-4 4c0 1.859 1.28 3.411 3 3.858v2.142c0 .552-.448 1-1 1h-4c-2.206 0-4 1.794-4 4 0 1.103-.897 2-2 2h-15v-6h5c2.757 0 5-2.243 5-5 0-1.103.897-2 2-2h3c1.654 0 3-1.346 3-3v-2.142c1.72-.447 3-1.999 3-3.858 0-2.206-1.794-4-4-4s-4 1.794-4 4c0 1.859 1.28 3.411 3 3.858v2.142c0 .552-.448 1-1 1h-3c-2.206 0-4 1.794-4 4 0 1.654-1.346 3-3 3h-5v-10.538c0-3.012-2.458-5.462-5.48-5.462-1.977 0-3.612 1.18-4.501 3.188 1.796 1.138 2.981 3.35 2.981 5.812 0 .553-.448 1-1 1s-1-.447-1-1c0-2.047-1.076-3.835-2.626-4.421-.96-.249-1.324-.272-1.414-.272-2.426 0-4.4 1.967-4.4 4.385 0 .775.213 1.525.635 2.229.242.404.168.923-.177 1.245-.345.32-.868.356-1.254.087-.382-.267-.825-.408-1.283-.408-.665 0-1.447.508-1.782 1.155-.187.36-.211.708-.08 1.054 2.604.272 4.382 2.215 4.382 4.945 0 .553-.448 1-1 1s-1-.447-1-1c0-1.786-1.136-2.946-2.897-2.991-1.458.342-3.104 1.886-3.104 3.453 0 1.198.669 2.306 1.746 2.89.323.175.523.512.523.879 0 .366-.201.704-.523.879-1.077.585-1.746 1.692-1.746 2.891 0 1.389.892 2.635 2.22 3.103.352.124.605.433.658.802s-.104.737-.407.954c-.883.634-1.39 1.61-1.39 2.68 0 .835.325 1.614.877 2.211 1.276-2.717 4.059-4.749 7.042-4.749.552 0 1 .447 1 1s-.448 1-1 1c-2.521 0-4.917 2.074-5.587 4.563-.003.012 0 .024-.003.036-.114.458-.17.892-.17 1.324 0 3.012 2.458 5.462 5.48 5.462.552 0 1 .447 1 1 0 4.199 3.427 7.615 7.64 7.615 3.875 0 7.149-2.833 7.64-6.601v-1.4c0-4.411-3.589-8-8-8-.552 0-1-.447-1-1s.448-1 1-1c3.273 0 6.175 1.588 8 4.026v-1.026h4c2.206 0 4 1.794 4 4s1.794 4 4 4c.552 0 1 .448 1 1v2.142c-1.72.447-3 1.999-3 3.858 0 2.206 1.794 4 4 4s4-1.794 4-4c0-1.859-1.28-3.411-3-3.858v-2.142c0-1.654-1.346-3-3-3-1.103 0-2-.897-2-2 0-3.309-2.691-6-6-6h-4v-5h14c1.103 0 2 .897 2 2 0 2.393 1.396 4 3.475 4h5.525c.552 0 1 .448 1 1v2.142c-1.72.447-3 1.999-3 3.858 0 2.206 1.794 4 4 4s4-1.794 4-4c0-1.859-1.28-3.411-3-3.858zm-35 5.858c-.552 0-1-.447-1-1s.448-1 1-1c1.738 0 3 1.262 3 3s-1.262 3-3 3c-.552 0-1-.447-1-1s.448-1 1-1c.636 0 1-.364 1-1s-.364-1-1-1zm-2-35c2.206 0 4 1.794 4 4 0 .553-.448 1-1 1s-1-.447-1-1c0-1.103-.897-2-2-2s-2 .897-2 2 .897 2 2 2c.552 0 1 .447 1 1s-.448 1-1 1c-2.206 0-4-1.794-4-4s1.794-4 4-4zm-2 32c.552 0 1 .447 1 1s-.448 1-1 1c-1.738 0-3-1.262-3-3s1.262-3 3-3c.552 0 1 .447 1 1s-.448 1-1 1c-.635 0-1 .364-1 1s.365 1 1 1zm3-11c-2.757 0-5-2.243-5-5 0-.553.448-1 1-1s1 .447 1 1c0 1.654 1.346 3 3 3s3-1.346 3-3-1.346-3-3-3c-.552 0-1-.447-1-1s.448-1 1-1c2.757 0 5 2.243 5 5s-2.243 5-5 5z"/></svg>